Blood.Out.2011.DvDRip.XviD.Ac3.Feel-Free 

Genre:Action
Language:English
IMDb:http://www.imdb.com/title/tt1477675/
Source:PAL DVD IMAGINE Thanks!


Format : AVI
Format/Info : Audio Video Interleave
File size : 879 MiB
Duration : 1h 25mn
Overall bit rate : 1 446 Kbps


Video
ID : 0
Format : MPEG-4 Visual
Format profile : Advanced Simple@L5
Format settings, BVOP : Yes
Format settings, QPel : No
Format settings, GMC : No warppoints
Format settings, Matrix : Default (H.263)
Muxing mode : Packed bitstream
Codec ID : XVID
Codec ID/Hint : XviD
Duration : 1h 25mn
Bit rate : 988 Kbps
Width : 652 pixels
Height : 352 pixels
Display aspect ratio : 1.852
Frame rate : 25.000 fps
Color space : YUV
Chroma subsampling : 4:2:0
Bit depth : 8 bits
Scan type : Progressive
Bits/(Pixel*Frame) : 0.172
Stream size : 601 MiB (68%)
Writing library : XviD 1.2.1 (UTC 2008-12-04)

Audio
ID : 1
Format : AC-3
Format/Info : Audio Coding 3
Mode extension : CM (complete main)
Codec ID : 2000
Duration : 1h 25mn
Bit rate mode : Constant
Bit rate : 448 Kbps
Channel(s) : 6 channels
Channel positions : Front: L C R, Side: L R, LFE
Sampling rate : 48.0 KHz
Bit depth : 16 bits
Stream size : 272 MiB (31%)
Alignment : Split accross interleaves
Interleave, duration : 40 ms (1.00 video frame)
Interleave, preload duration : 500 ms


Plot:

When big city detectives refuse to further investigate his kid brother's gang related murder, small town Sheriff Michael Spencer drops the badge and goes undercover to find his brother's killer and avenge his death.


Screens:

 
http://leetleech.org/images/79834216044681529104.png
 
http://leetleech.org/images/51280752212952604999.png


ENJOY!